<?xml version="1.0" standalone="no"?>
<!DOCTYPE svg PUBLIC "-//W3C//DTD SVG 20010904//EN"
 "http://www.w3.org/TR/2001/REC-SVG-20010904/DTD/svg10.dtd">
<svg version="1.0" xmlns="http://www.w3.org/2000/svg"
 width="640.000000pt" height="640.000000pt" viewBox="0 0 640.000000 640.000000"
 preserveAspectRatio="xMidYMid meet">
<metadata>
Created by potrace 1.14, written by Peter Selinger 2001-2017
</metadata>
<g transform="translate(0.000000,640.000000) scale(0.100000,-0.100000)"
fill="#000000" stroke="none">
<path d="M4334 5244 c-102 -35 -146 -70 -184 -144 -21 -42 -48 -118 -55 -159
-9 -53 -8 -205 3 -256 21 -103 1 -224 -51 -298 -15 -22 -26 -28 -43 -24 -18 3
-33 -5 -59 -35 -22 -23 -60 -49 -98 -65 -161 -69 -329 -202 -427 -337 -19 -27
-47 -60 -61 -75 -14 -14 -29 -34 -33 -45 -8 -24 14 -86 31 -86 7 0 13 -6 13
-12 0 -24 -22 -93 -31 -99 -5 -3 -124 -5 -264 -5 -140 1 -255 -3 -255 -7 0 -5
-5 -5 -12 -1 -6 4 -32 7 -57 6 -51 -2 -208 -2 -219 -1 -4 1 -11 1 -17 0 -25
-5 -164 -3 -173 2 -5 4 -12 4 -16 0 -3 -3 -288 -7 -633 -9 -346 -1 -764 -3
-930 -4 -207 -1 -305 -5 -309 -12 -7 -11 -8 -250 -4 -1225 l2 -483 37 -1 c226
-7 3607 -25 3714 -20 26 1 27 3 27 56 0 30 3 55 6 55 19 0 44 -25 54 -54 10
-31 70 -118 70 -102 0 3 11 -1 24 -9 22 -14 66 -20 122 -16 12 0 44 20 70 44
61 54 74 59 109 41 41 -21 81 -21 105 1 43 39 50 67 45 173 l-4 99 42 13 c23
8 48 18 55 23 6 5 12 6 12 2 0 -5 9 0 21 11 12 10 23 18 25 16 2 -1 18 5 34
13 17 9 30 11 30 6 0 -9 79 -50 112 -57 10 -2 28 -7 41 -10 44 -11 145 -5 176
10 22 12 32 26 37 51 5 28 14 39 38 49 68 28 121 99 117 155 -1 30 -41 91 -58
91 -7 0 -13 3 -14 8 -8 79 -45 110 -139 114 -39 2 -49 15 -40 48 4 16 5 31 2
34 -8 9 -3 161 7 188 10 31 7 100 -7 124 -9 16 -5 25 27 59 45 47 77 120 84
189 6 56 -3 70 -52 81 -28 6 -32 10 -26 28 3 12 7 27 8 32 2 6 6 16 10 23 5 6
6 12 3 12 -3 0 -1 11 4 24 5 13 12 43 15 67 4 24 9 47 11 51 22 35 22 183 0
207 -13 14 -14 23 -4 49 11 29 10 34 -18 64 -17 18 -42 51 -57 73 -45 68 -179
184 -294 255 -29 17 -66 48 -83 68 -26 32 -35 36 -71 35 -37 -2 -42 1 -54 32
-19 45 -30 116 -19 124 15 10 43 66 48 95 5 29 -17 84 -38 98 -7 5 -11 51 -12
125 -1 147 -8 191 -38 256 -57 124 -155 189 -289 192 -60 1 -94 -4 -143 -21z"/>
</g>
</svg>
